<mxfile host="app.diagrams.net" modified="2024-01-17T00:59:51.108Z" agent="Mozilla/5.0 (Windows NT 10.0; Win64; x64) AppleWebKit/537.36 (KHTML, like Gecko) Chrome/120.0.0.0 Safari/537.36" etag="3oUhZ8PX91xDbLoa4i4d" version="22.1.18" type="github">
  <diagram name="Page-1" id="2GRAYQbGgwGCQ1bq4cRz">
    <mxGraphModel dx="836" dy="442" grid="1" gridSize="10" guides="1" tooltips="1" connect="1" arrows="1" fold="1" page="1" pageScale="1" pageWidth="1654" pageHeight="2336" math="0" shadow="0">
      <root>
        <mxCell id="0" />
        <mxCell id="1" parent="0" />
        <mxCell id="MpMOlBdk-1zB-H3q664x-13" value=": Puissance fournie par la batterie&lt;br&gt;P&lt;font style=&quot;font-size: 8px;&quot;&gt;b&lt;/font&gt; = V&lt;font style=&quot;font-size: 8px;&quot;&gt;b&lt;/font&gt; * I&lt;font style=&quot;font-size: 8px;&quot;&gt;b&lt;/font&gt;" style="rounded=1;whiteSpace=wrap;html=1;" vertex="1" parent="1">
          <mxGeometry x="190" y="150" width="160" height="80" as="geometry" />
        </mxCell>
        <mxCell id="MpMOlBdk-1zB-H3q664x-16" value="Force appliquée à la roue" style="rounded=1;whiteSpace=wrap;html=1;" vertex="1" parent="1">
          <mxGeometry x="440" y="440" width="140" height="70" as="geometry" />
        </mxCell>
        <mxCell id="MpMOlBdk-1zB-H3q664x-17" value="Accéleration" style="rounded=1;whiteSpace=wrap;html=1;" vertex="1" parent="1">
          <mxGeometry x="560" y="360" width="140" height="70" as="geometry" />
        </mxCell>
        <mxCell id="MpMOlBdk-1zB-H3q664x-18" value="Vitesse Lineaire" style="rounded=1;whiteSpace=wrap;html=1;" vertex="1" parent="1">
          <mxGeometry x="500" y="450" width="140" height="70" as="geometry" />
        </mxCell>
        <mxCell id="MpMOlBdk-1zB-H3q664x-19" value="Couple Moteur&amp;nbsp;" style="rounded=1;whiteSpace=wrap;html=1;" vertex="1" parent="1">
          <mxGeometry x="460" y="520" width="140" height="70" as="geometry" />
        </mxCell>
        <mxCell id="MpMOlBdk-1zB-H3q664x-20" value=": Puissance Consomé par le moteur&amp;nbsp;&lt;br&gt;P&lt;span style=&quot;font-size: 8px;&quot;&gt;m&lt;/span&gt;&amp;nbsp;= V&lt;span style=&quot;font-size: 8px;&quot;&gt;m&lt;/span&gt;&amp;nbsp;* I&lt;span style=&quot;font-size: 8px;&quot;&gt;m&lt;/span&gt;" style="rounded=1;whiteSpace=wrap;html=1;" vertex="1" parent="1">
          <mxGeometry x="200" y="330" width="150" height="80" as="geometry" />
        </mxCell>
        <mxCell id="MpMOlBdk-1zB-H3q664x-25" value="" style="strokeColor=inherit;fillColor=inherit;gradientColor=inherit;shape=rect;html=1;fontSize=10;verticalLabelPosition=top;verticalAlign=bottom;" vertex="1" parent="1">
          <mxGeometry x="310" y="220" width="20" height="20" as="geometry" />
        </mxCell>
        <mxCell id="MpMOlBdk-1zB-H3q664x-33" style="edgeStyle=orthogonalEdgeStyle;rounded=0;orthogonalLoop=1;jettySize=auto;html=1;exitX=0.5;exitY=1;exitDx=0;exitDy=0;entryX=0.5;entryY=0;entryDx=0;entryDy=0;endArrow=none;endFill=0;" edge="1" parent="1" source="MpMOlBdk-1zB-H3q664x-27" target="MpMOlBdk-1zB-H3q664x-28">
          <mxGeometry relative="1" as="geometry" />
        </mxCell>
        <mxCell id="MpMOlBdk-1zB-H3q664x-27" value="" style="strokeColor=inherit;fillColor=inherit;gradientColor=inherit;shape=rect;html=1;fontSize=10;verticalLabelPosition=top;verticalAlign=bottom;" vertex="1" parent="1">
          <mxGeometry x="220" y="220" width="20" height="20" as="geometry" />
        </mxCell>
        <mxCell id="MpMOlBdk-1zB-H3q664x-28" value="" style="strokeColor=inherit;fillColor=inherit;gradientColor=inherit;shape=rect;html=1;fontSize=10;verticalLabelPosition=top;verticalAlign=bottom;" vertex="1" parent="1">
          <mxGeometry x="220" y="320" width="20" height="20" as="geometry" />
        </mxCell>
        <mxCell id="MpMOlBdk-1zB-H3q664x-29" value="" style="strokeColor=inherit;fillColor=inherit;gradientColor=inherit;shape=rect;html=1;fontSize=10;verticalLabelPosition=top;verticalAlign=bottom;" vertex="1" parent="1">
          <mxGeometry x="310" y="320" width="20" height="20" as="geometry" />
        </mxCell>
        <mxCell id="MpMOlBdk-1zB-H3q664x-36" style="edgeStyle=orthogonalEdgeStyle;rounded=0;orthogonalLoop=1;jettySize=auto;html=1;exitX=1;exitY=0.5;exitDx=0;exitDy=0;entryX=1;entryY=0.5;entryDx=0;entryDy=0;endArrow=none;endFill=0;" edge="1" parent="1" source="MpMOlBdk-1zB-H3q664x-31" target="MpMOlBdk-1zB-H3q664x-32">
          <mxGeometry relative="1" as="geometry">
            <mxPoint x="400" y="370" as="targetPoint" />
            <Array as="points">
              <mxPoint x="400" y="190" />
              <mxPoint x="400" y="370" />
            </Array>
          </mxGeometry>
        </mxCell>
        <mxCell id="MpMOlBdk-1zB-H3q664x-31" value="" style="strokeColor=inherit;fillColor=inherit;gradientColor=inherit;shape=rect;html=1;fontSize=10;verticalLabelPosition=top;verticalAlign=bottom;" vertex="1" parent="1">
          <mxGeometry x="340" y="180" width="20" height="20" as="geometry" />
        </mxCell>
        <mxCell id="MpMOlBdk-1zB-H3q664x-32" value="" style="strokeColor=inherit;fillColor=inherit;gradientColor=inherit;shape=rect;html=1;fontSize=10;verticalLabelPosition=top;verticalAlign=bottom;" vertex="1" parent="1">
          <mxGeometry x="340" y="360" width="20" height="20" as="geometry" />
        </mxCell>
        <mxCell id="MpMOlBdk-1zB-H3q664x-35" style="edgeStyle=orthogonalEdgeStyle;rounded=0;orthogonalLoop=1;jettySize=auto;html=1;exitX=0.5;exitY=1;exitDx=0;exitDy=0;entryX=0.5;entryY=0;entryDx=0;entryDy=0;endArrow=none;endFill=0;" edge="1" parent="1" source="MpMOlBdk-1zB-H3q664x-25" target="MpMOlBdk-1zB-H3q664x-29">
          <mxGeometry relative="1" as="geometry" />
        </mxCell>
      </root>
    </mxGraphModel>
  </diagram>
</mxfile>
